<svg width="150" height="31" viewBox="0 0 150 31" fill="none" xmlns="http://www.w3.org/2000/svg">
<path fill-rule="evenodd" clip-rule="evenodd" d="M9.87036 0C4.43721 0 0 4.44531 0 9.87036C0 15.3035 4.44531 19.7407 9.87036 19.7407V0Z" fill="#4169E1"/>
<path fill-rule="evenodd" clip-rule="evenodd" d="M10.8828 7.64355C16.316 7.64355 20.7532 12.0889 20.7532 17.5139H10.8828V7.64355Z" fill="#4169E1"/>
<path fill-rule="evenodd" clip-rule="evenodd" d="M10.8828 18.5264C16.316 18.5264 20.7532 22.9717 20.7532 28.3967H10.8828V18.5264Z" fill="#4169E1"/>
<path fill-rule="evenodd" clip-rule="evenodd" d="M9.87036 30.6233C4.43721 30.6233 0 26.178 0 20.7529H9.87036V30.6233Z" fill="#4169E1"/>
<path d="M35.7891 26.9877C34.9389 26.9877 34.113 26.8743 33.3276 26.6557C32.5422 26.429 31.8134 26.1132 31.1495 25.6921C30.4855 25.2792 29.9106 24.7691 29.4248 24.1699L31.6677 21.927C32.2021 22.5424 32.8175 23.012 33.5057 23.3197C34.2021 23.6274 34.9794 23.7812 35.8539 23.7812C36.6393 23.7812 37.2385 23.6679 37.6434 23.433C38.0482 23.1982 38.2506 22.8581 38.2506 22.4128C38.2506 21.9432 38.0563 21.5788 37.6757 21.3278C37.2952 21.0687 36.7932 20.8501 36.1859 20.6719C35.5786 20.4938 34.9389 20.3076 34.2669 20.1132C33.5948 19.9189 32.9551 19.6598 32.3479 19.3278C31.7406 18.9958 31.2467 18.5424 30.858 17.9675C30.4774 17.3926 30.2831 16.6477 30.2831 15.7246C30.2831 14.7448 30.5098 13.9027 30.9714 13.1983C31.4329 12.4939 32.0807 11.9513 32.9228 11.5627C33.7648 11.1821 34.777 10.9878 35.943 10.9878C37.1818 10.9878 38.2749 11.2064 39.2223 11.6437C40.1697 12.0809 40.9632 12.7368 41.6028 13.6113L39.3599 15.8541C38.9146 15.2955 38.3964 14.8825 37.8215 14.6072C37.2466 14.3319 36.5826 14.1942 35.8377 14.1942C35.1333 14.1942 34.5908 14.2995 34.2021 14.5181C33.8215 14.7287 33.6272 15.0444 33.6272 15.4493C33.6272 15.8784 33.8215 16.2104 34.2021 16.4452C34.5827 16.6801 35.0847 16.8825 35.692 17.0525C36.2992 17.2226 36.9389 17.4088 37.611 17.6112C38.283 17.8136 38.9227 18.089 39.53 18.4452C40.1373 18.8015 40.6312 19.263 41.0199 19.8541C41.4004 20.4371 41.5947 21.2063 41.5947 22.1456C41.5947 23.6355 41.0684 24.8257 40.0239 25.7002C38.9794 26.5747 37.5624 27.012 35.7648 27.012L35.7891 26.9877Z" fill="#000080"/>
<path d="M50.8259 26.9876C49.5466 26.9876 48.3968 26.6961 47.3684 26.1212C46.3482 25.5463 45.5466 24.7528 44.9879 23.7568C44.4211 22.7528 44.1377 21.5787 44.1377 20.2346V11.3035H47.6599V20.0727C47.6599 20.8176 47.7814 21.4573 48.0243 21.9755C48.2672 22.5018 48.6316 22.8986 49.1093 23.1739C49.587 23.4492 50.1619 23.5868 50.8178 23.5868C51.838 23.5868 52.6235 23.2791 53.166 22.6718C53.7085 22.0646 53.9838 21.1982 53.9838 20.0646V11.2954H57.506V20.2265C57.506 21.5706 57.2226 22.7528 56.6558 23.7649C56.089 24.7771 55.3036 25.5706 54.2915 26.1293C53.2793 26.6961 52.1214 26.9795 50.8178 26.9795L50.8259 26.9876Z" fill="#000080"/>
<path d="M69.295 26.9878C68.1209 26.9878 67.0764 26.7368 66.1614 26.2347C65.2465 25.7327 64.5258 25.0445 63.9995 24.17C63.4732 23.2955 63.2141 22.2996 63.2141 21.1903V16.7773C63.2141 15.668 63.4813 14.6721 64.0157 13.7976C64.5501 12.9231 65.2708 12.2349 66.1938 11.7328C67.1088 11.2308 68.1452 10.9798 69.295 10.9798C70.6796 10.9798 71.9347 11.3361 73.0521 12.0486C74.1695 12.7612 75.0601 13.7247 75.7079 14.9312C76.3557 16.1377 76.6877 17.498 76.6877 19.0121C76.6877 20.502 76.3638 21.8542 75.7079 23.0607C75.0601 24.2672 74.1695 25.2226 73.0521 25.9271C71.9347 26.6315 70.6796 26.9797 69.295 26.9797V26.9878ZM68.7201 23.6599C69.5703 23.6599 70.3233 23.4655 70.9792 23.0688C71.627 22.672 72.1452 22.1214 72.5177 21.417C72.8901 20.7125 73.0764 19.9028 73.0764 18.9878C73.0764 18.0729 72.8901 17.2632 72.5177 16.5587C72.1452 15.8543 71.6351 15.3037 70.9792 14.9069C70.3314 14.5101 69.5784 14.3158 68.7201 14.3158C67.8699 14.3158 67.1088 14.5101 66.4448 14.9069C65.7809 15.3037 65.2708 15.8543 64.9064 16.5587C64.542 17.2632 64.3639 18.0729 64.3639 18.9878C64.3639 19.9028 64.542 20.7125 64.9064 21.417C65.2708 22.1214 65.7809 22.672 66.4448 23.0688C67.1088 23.4655 67.8618 23.6599 68.7201 23.6599ZM61.0684 26.672V3.63574H64.5906V15.0931L63.9833 18.8016L64.5906 22.5425V26.672H61.0684Z" fill="#000080"/>
<path d="M84.6553 26.9877C83.8051 26.9877 82.9792 26.8743 82.1938 26.6557C81.4084 26.429 80.6797 26.1132 80.0157 25.6921C79.3517 25.2792 78.7768 24.7691 78.291 24.1699L80.5339 21.927C81.0683 22.5424 81.6837 23.012 82.372 23.3197C83.0683 23.6274 83.8456 23.7812 84.7201 23.7812C85.5055 23.7812 86.1047 23.6679 86.5096 23.433C86.9144 23.1982 87.1168 22.8581 87.1168 22.4128C87.1168 21.9432 86.9225 21.5788 86.542 21.3278C86.1614 21.0687 85.6594 20.8501 85.0521 20.6719C84.4448 20.4938 83.8051 20.3076 83.1331 20.1132C82.461 19.9189 81.8214 19.6598 81.2141 19.3278C80.6068 18.9958 80.1129 18.5424 79.7242 17.9675C79.3436 17.3926 79.1493 16.6477 79.1493 15.7246C79.1493 14.7448 79.376 13.9027 79.8376 13.1983C80.2991 12.4939 80.9469 11.9513 81.789 11.5627C82.6311 11.1821 83.6432 10.9878 84.8092 10.9878C86.048 10.9878 87.1411 11.2064 88.0885 11.6437C89.0359 12.0809 89.8294 12.7368 90.4691 13.6113L88.2262 15.8541C87.7808 15.2955 87.2626 14.8825 86.6877 14.6072C86.1128 14.3319 85.4489 14.1942 84.7039 14.1942C83.9995 14.1942 83.457 14.2995 83.0683 14.5181C82.6877 14.7287 82.4934 15.0444 82.4934 15.4493C82.4934 15.8784 82.6877 16.2104 83.0683 16.4452C83.4489 16.6801 83.9509 16.8825 84.5582 17.0525C85.1655 17.2226 85.8051 17.4088 86.4772 17.6112C87.1492 17.8136 87.7889 18.089 88.3962 18.4452C89.0035 18.8015 89.4974 19.263 89.8861 19.8541C90.2666 20.4371 90.461 21.2063 90.461 22.1456C90.461 23.6355 89.9346 24.8257 88.8901 25.7002C87.8456 26.5747 86.4286 27.012 84.631 27.012L84.6553 26.9877Z" fill="#000080"/>
<path d="M99.3643 26.9877C98.5141 26.9877 97.6882 26.8743 96.9028 26.6557C96.1174 26.429 95.3886 26.1132 94.7247 25.6921C94.0607 25.2792 93.4858 24.7691 93 24.1699L95.2429 21.927C95.7773 22.5424 96.3927 23.012 97.0809 23.3197C97.7773 23.6274 98.5546 23.7812 99.4291 23.7812C100.215 23.7812 100.814 23.6679 101.219 23.433C101.623 23.1982 101.826 22.8581 101.826 22.4128C101.826 21.9432 101.632 21.5788 101.251 21.3278C100.87 21.0687 100.368 20.8501 99.7611 20.6719C99.1538 20.4938 98.5141 20.3076 97.8421 20.1132C97.17 19.9189 96.5303 19.6598 95.9231 19.3278C95.3158 18.9958 94.8218 18.5424 94.4332 17.9675C94.0526 17.3926 93.8583 16.6477 93.8583 15.7246C93.8583 14.7448 94.085 13.9027 94.5465 13.1983C95.0081 12.4939 95.6558 11.9513 96.4979 11.5627C97.34 11.1821 98.3522 10.9878 99.5182 10.9878C100.757 10.9878 101.85 11.2064 102.797 11.6437C103.745 12.0809 104.538 12.7368 105.178 13.6113L102.935 15.8541C102.49 15.2955 101.972 14.8825 101.397 14.6072C100.822 14.3319 100.158 14.1942 99.4129 14.1942C98.7085 14.1942 98.1659 14.2995 97.7773 14.5181C97.3967 14.7287 97.2024 15.0444 97.2024 15.4493C97.2024 15.8784 97.3967 16.2104 97.7773 16.4452C98.1578 16.6801 98.6599 16.8825 99.2672 17.0525C99.8744 17.2226 100.514 17.4088 101.186 17.6112C101.858 17.8136 102.498 18.089 103.105 18.4452C103.712 18.8015 104.206 19.263 104.595 19.8541C104.976 20.4371 105.17 21.2063 105.17 22.1456C105.17 23.6355 104.644 24.8257 103.599 25.7002C102.555 26.5747 101.138 27.012 99.34 27.012L99.3643 26.9877Z" fill="#000080"/>
<path d="M115.688 26.9876C114.409 26.9876 113.259 26.6961 112.231 26.1212C111.211 25.5463 110.409 24.7528 109.85 23.7568C109.283 22.7528 109 21.5787 109 20.2346V11.3035H112.522V20.0727C112.522 20.8176 112.644 21.4573 112.887 21.9755C113.13 22.5018 113.494 22.8986 113.972 23.1739C114.449 23.4492 115.024 23.5868 115.68 23.5868C116.7 23.5868 117.486 23.2791 118.028 22.6718C118.571 22.0646 118.846 21.1982 118.846 20.0646V11.2954H122.368V20.2265C122.368 21.5706 122.085 22.7528 121.518 23.7649C120.951 24.7771 120.166 25.5706 119.154 26.1293C118.142 26.6961 116.984 26.9795 115.68 26.9795L115.688 26.9876Z" fill="#000080"/>
<path d="M125.932 26.6719V11.3117H129.454V26.6719H125.932ZM136.142 26.6719V17.5222C136.142 16.5019 135.826 15.7003 135.179 15.1416C134.539 14.5748 133.753 14.2914 132.814 14.2914C132.175 14.2914 131.6 14.421 131.106 14.672C130.604 14.9311 130.207 15.2954 129.907 15.7732C129.608 16.2509 129.462 16.8339 129.462 17.5141L128.085 16.7448C128.085 15.5708 128.345 14.5586 128.855 13.7084C129.365 12.8582 130.061 12.1862 130.936 11.7084C131.81 11.2307 132.79 10.9878 133.883 10.9878C134.968 10.9878 135.956 11.2226 136.83 11.6922C137.705 12.1619 138.401 12.8258 138.911 13.676C139.421 14.5262 139.681 15.5546 139.681 16.7448V26.6638H136.158L136.142 26.6719ZM146.353 26.6719V17.5222C146.353 16.5019 146.037 15.7003 145.389 15.1416C144.749 14.5748 143.956 14.2914 143.025 14.2914C142.409 14.2914 141.842 14.421 141.332 14.672C140.822 14.9311 140.417 15.2954 140.118 15.7732C139.818 16.2509 139.672 16.8339 139.672 17.5141L137.689 16.7448C137.794 15.5708 138.134 14.5586 138.709 13.7084C139.284 12.8582 140.029 12.1862 140.936 11.7084C141.842 11.2307 142.838 10.9878 143.931 10.9878C145.041 10.9878 146.045 11.2226 146.936 11.6922C147.834 12.1619 148.547 12.8258 149.081 13.676C149.616 14.5262 149.883 15.5546 149.883 16.7448V26.6638H146.361L146.353 26.6719Z" fill="#000080"/>
</svg>
